<svg xmlns="http://www.w3.org/2000/svg" width="1200" height="675" viewBox="0 0 1200 675" role="img" aria-labelledby="title desc">
  <title id="title">FixMate AI synthetic report export page</title><desc id="desc">Vector mockup showing privacy-safe report selection and preview.</desc>
  <rect width="1200" height="675" fill="#0b1d33"/><rect x="28" y="24" width="1144" height="627" rx="22" fill="#f7f9fc"/><rect x="28" y="24" width="1144" height="76" rx="22" fill="#153a64"/><rect x="28" y="78" width="1144" height="22" fill="#153a64"/><text x="62" y="70" font-family="Arial" font-size="29" font-weight="700" fill="white">Diagnostic Reports</text><rect x="922" y="46" width="212" height="32" rx="16" fill="#1f8a70"/><text x="1028" y="67" text-anchor="middle" font-family="Arial" font-size="14" font-weight="700" fill="white">SYNTHETIC DEMO</text>
  <g font-family="Arial"><rect x="58" y="126" width="350" height="482" rx="16" fill="white" stroke="#d8e1ec"/><text x="82" y="162" font-size="19" font-weight="700" fill="#153a64">Report options</text><text x="82" y="203" font-size="13" fill="#607086">Report type</text><rect x="82" y="214" width="302" height="44" rx="8" fill="#f4f7fa" stroke="#c8d4e0"/><text x="98" y="242" font-size="15" fill="#26374d">Full diagnostic bundle</text><text x="82" y="290" font-size="13" fill="#607086">Format</text><rect x="82" y="301" width="302" height="44" rx="8" fill="#f4f7fa" stroke="#c8d4e0"/><text x="98" y="329" font-size="15" fill="#26374d">PDF · printable handover</text><text x="82" y="380" font-size="13" fill="#607086">Included sections</text><g font-size="14" fill="#26374d"><rect x="84" y="397" width="18" height="18" rx="3" fill="#3287d4"/><text x="111" y="411">System health</text><rect x="84" y="429" width="18" height="18" rx="3" fill="#3287d4"/><text x="111" y="443">Network diagnostics</text><rect x="84" y="461" width="18" height="18" rx="3" fill="#3287d4"/><text x="111" y="475">Detected issues</text><rect x="84" y="493" width="18" height="18" rx="3" fill="#3287d4"/><text x="111" y="507">Safe recommendations</text></g><rect x="82" y="544" width="302" height="44" rx="10" fill="#0b6bc0"/><text x="233" y="572" text-anchor="middle" font-size="15" font-weight="700" fill="white">Generate report</text>
  <rect x="434" y="126" width="710" height="482" rx="16" fill="white" stroke="#d8e1ec"/><text x="458" y="162" font-size="19" font-weight="700" fill="#153a64">Preview</text><rect x="458" y="184" width="662" height="58" rx="10" fill="#eaf3ff"/><text x="478" y="209" font-size="14" font-weight="700" fill="#153a64">Privacy-safe full diagnostic bundle</text><text x="478" y="229" font-size="12" fill="#526173">Generated locally · No report stored · Review before sharing</text><text x="458" y="280" font-size="25" font-weight="700" fill="#153a64">FixMate AI Diagnostic Report</text><text x="458" y="307" font-size="13" fill="#607086">Generated 2026-01-15T09:45:00Z · SYNTHETIC DEMO</text><g font-size="14"><rect x="458" y="337" width="202" height="86" rx="10" fill="#f4f7fa"/><text x="476" y="365" fill="#607086">Health score</text><text x="476" y="401" font-size="27" font-weight="700" fill="#16836b">85 / 100</text><rect x="676" y="337" width="202" height="86" rx="10" fill="#f4f7fa"/><text x="694" y="365" fill="#607086">Highest severity</text><text x="694" y="401" font-size="22" font-weight="700" fill="#b36b00">MEDIUM</text><rect x="894" y="337" width="202" height="86" rx="10" fill="#f4f7fa"/><text x="912" y="365" fill="#607086">Evidence sources</text><text x="912" y="401" font-size="22" font-weight="700" fill="#153a64">4</text><text x="458" y="466" font-size="16" font-weight="700" fill="#26374d">Recommended next step</text><text x="458" y="495" font-size="14" fill="#526173">Review disk usage and rerun diagnostics while the issue occurs.</text></g><rect x="896" y="542" width="200" height="42" rx="10" fill="#1f8a70"/><text x="996" y="568" text-anchor="middle" font-size="14" font-weight="700" fill="white">Download PDF</text></g>
</svg>
