<svg xmlns="http://www.w3.org/2000/svg" width="1200" height="675" viewBox="0 0 1200 675" role="img" aria-labelledby="title desc">
  <title id="title">FixMate AI synthetic FastAPI Swagger documentation</title><desc id="desc">Vector mockup of versioned API endpoint documentation.</desc>
  <rect width="1200" height="675" fill="#16202a"/><rect x="30" y="25" width="1140" height="625" rx="18" fill="#f4f5f7"/><rect x="30" y="25" width="1140" height="66" rx="18" fill="#202b35"/><rect x="30" y="73" width="1140" height="18" fill="#202b35"/><text x="64" y="67" font-family="Arial" font-size="28" font-weight="700" fill="#85ea2d">FixMate AI API</text><text x="270" y="66" font-family="Arial" font-size="14" fill="#d4dbe2">OpenAPI 3.1 · v1.0.0</text><rect x="930" y="42" width="204" height="31" rx="15" fill="#1f8a70"/><text x="1032" y="63" text-anchor="middle" font-family="Arial" font-size="14" font-weight="700" fill="white">SYNTHETIC DEMO</text>
  <g font-family="Arial"><text x="62" y="130" font-size="16" fill="#526173">Localhost-first diagnostics and troubleshooting REST API</text><rect x="62" y="158" width="1076" height="54" rx="7" fill="#e7f6ec" stroke="#49a66b"/><rect x="76" y="171" width="64" height="28" rx="5" fill="#49a66b"/><text x="108" y="190" text-anchor="middle" font-size="13" font-weight="700" fill="white">GET</text><text x="160" y="191" font-size="16" font-weight="700" fill="#26374d">/health</text><text x="340" y="191" font-size="14" fill="#526173">API health check</text>
  <rect x="62" y="226" width="1076" height="54" rx="7" fill="#e7f1fb" stroke="#3287d4"/><rect x="76" y="239" width="64" height="28" rx="5" fill="#3287d4"/><text x="108" y="258" text-anchor="middle" font-size="13" font-weight="700" fill="white">GET</text><text x="160" y="259" font-size="16" font-weight="700" fill="#26374d">/api/v1/system/latest</text><text x="425" y="259" font-size="14" fill="#526173">Latest privacy-safe system scan</text>
  <rect x="62" y="294" width="1076" height="54" rx="7" fill="#fff4df" stroke="#e19a27"/><rect x="76" y="307" width="64" height="28" rx="5" fill="#e19a27"/><text x="108" y="326" text-anchor="middle" font-size="13" font-weight="700" fill="white">POST</text><text x="160" y="327" font-size="16" font-weight="700" fill="#26374d">/api/v1/system/scans</text><text x="407" y="327" font-size="14" fill="#526173">Run scan · X-API-Token required</text>
  <rect x="62" y="362" width="1076" height="54" rx="7" fill="#e7f1fb" stroke="#3287d4"/><rect x="76" y="375" width="64" height="28" rx="5" fill="#3287d4"/><text x="108" y="394" text-anchor="middle" font-size="13" font-weight="700" fill="white">GET</text><text x="160" y="395" font-size="16" font-weight="700" fill="#26374d">/api/v1/issues</text><text x="335" y="395" font-size="14" fill="#526173">Paginated severity and date filters</text>
  <rect x="62" y="430" width="1076" height="54" rx="7" fill="#fff4df" stroke="#e19a27"/><rect x="76" y="443" width="64" height="28" rx="5" fill="#e19a27"/><text x="108" y="462" text-anchor="middle" font-size="13" font-weight="700" fill="white">POST</text><text x="160" y="463" font-size="16" font-weight="700" fill="#26374d">/api/v1/assistant/query</text><text x="425" y="463" font-size="14" fill="#526173">Deterministic default · bounded optional AI</text>
  <rect x="62" y="498" width="1076" height="54" rx="7" fill="#fff4df" stroke="#e19a27"/><rect x="76" y="511" width="64" height="28" rx="5" fill="#e19a27"/><text x="108" y="530" text-anchor="middle" font-size="13" font-weight="700" fill="white">POST</text><text x="160" y="531" font-size="16" font-weight="700" fill="#26374d">/api/v1/reports/generate</text><text x="450" y="531" font-size="14" fill="#526173">In-memory CSV, JSON, HTML, or PDF</text><rect x="62" y="574" width="1076" height="44" rx="8" fill="#e9edf2"/><text x="82" y="602" font-size="14" fill="#526173">Request IDs · UTC timestamps · structured errors · CORS allowlist · body limits · rate limits</text></g>
</svg>
