<svg xmlns="http://www.w3.org/2000/svg" width="1200" height="675" viewBox="0 0 1200 675" role="img" aria-labelledby="title desc">
  <title id="title">FixMate AI synthetic system health dashboard</title>
  <desc id="desc">A privacy-safe vector mockup showing health score and system metrics.</desc>
  <defs><linearGradient id="bg" x1="0" y1="0" x2="1" y2="1"><stop stop-color="#081426"/><stop offset="1" stop-color="#153861"/></linearGradient></defs>
  <rect width="1200" height="675" fill="url(#bg)"/><rect x="30" y="26" width="1140" height="623" rx="22" fill="#f7f9fc"/>
  <rect x="30" y="26" width="1140" height="78" rx="22" fill="#102f52"/><rect x="30" y="82" width="1140" height="22" fill="#102f52"/>
  <text x="66" y="75" font-family="Arial" font-size="30" font-weight="700" fill="white">FixMate AI · System Health</text>
  <rect x="920" y="48" width="215" height="34" rx="17" fill="#1f8a70"/><text x="1028" y="70" text-anchor="middle" font-family="Arial" font-size="14" font-weight="700" fill="white">SYNTHETIC DEMO</text>
  <g font-family="Arial"><rect x="60" y="132" width="250" height="170" rx="16" fill="white" stroke="#dce4ee"/><text x="84" y="167" font-size="17" fill="#526173">Overall health</text><text x="84" y="242" font-size="68" font-weight="700" fill="#16836b">85</text><text x="177" y="240" font-size="22" fill="#526173">/ 100</text><text x="84" y="278" font-size="15" fill="#16836b">Good · one medium issue</text>
  <rect x="335" y="132" width="245" height="170" rx="16" fill="white" stroke="#dce4ee"/><text x="359" y="167" font-size="17" fill="#526173">CPU usage</text><text x="359" y="226" font-size="46" font-weight="700" fill="#153a64">42%</text><rect x="359" y="250" width="190" height="12" rx="6" fill="#dce4ee"/><rect x="359" y="250" width="80" height="12" rx="6" fill="#3287d4"/>
  <rect x="605" y="132" width="245" height="170" rx="16" fill="white" stroke="#dce4ee"/><text x="629" y="167" font-size="17" fill="#526173">Memory usage</text><text x="629" y="226" font-size="46" font-weight="700" fill="#153a64">68%</text><rect x="629" y="250" width="190" height="12" rx="6" fill="#dce4ee"/><rect x="629" y="250" width="129" height="12" rx="6" fill="#7b61c9"/>
  <rect x="875" y="132" width="245" height="170" rx="16" fill="white" stroke="#dce4ee"/><text x="899" y="167" font-size="17" fill="#526173">Disk free</text><text x="899" y="226" font-size="46" font-weight="700" fill="#b36b00">8%</text><rect x="899" y="250" width="190" height="12" rx="6" fill="#dce4ee"/><rect x="899" y="250" width="16" height="12" rx="6" fill="#e19a27"/>
  <rect x="60" y="330" width="700" height="275" rx="16" fill="white" stroke="#dce4ee"/><text x="84" y="368" font-size="20" font-weight="700" fill="#153a64">14-day performance history</text><line x1="95" y1="555" x2="720" y2="555" stroke="#cdd7e3"/><line x1="95" y1="405" x2="95" y2="555" stroke="#cdd7e3"/><polyline points="95,500 150,470 205,485 260,430 315,460 370,425 425,445 480,395 535,455 590,420 645,438 720,410" fill="none" stroke="#3287d4" stroke-width="5"/><polyline points="95,525 150,510 205,500 260,505 315,480 370,470 425,475 480,460 535,445 590,452 645,430 720,440" fill="none" stroke="#7b61c9" stroke-width="5"/>
  <rect x="785" y="330" width="335" height="275" rx="16" fill="white" stroke="#dce4ee"/><text x="809" y="368" font-size="20" font-weight="700" fill="#153a64">Detected issue</text><rect x="809" y="392" width="88" height="28" rx="14" fill="#fff0d5"/><text x="853" y="411" text-anchor="middle" font-size="13" font-weight="700" fill="#9a5b00">MEDIUM</text><text x="809" y="454" font-size="18" font-weight="700" fill="#25364d">Low disk space</text><text x="809" y="484" font-size="14" fill="#526173">Evidence: 8% free at scan time.</text><text x="809" y="521" font-size="14" fill="#526173">Guidance: review large files and</text><text x="809" y="543" font-size="14" fill="#526173">applications you recognize.</text></g>
</svg>
